<svg xmlns="http://www.w3.org/2000/svg" viewBox="0 0 82.43 147.26"><defs><style>.cls-1{fill:#58595b;}.cls-2{fill:#f5b968;}.cls-3{fill:#eeaa59;}.cls-4{fill:#fecc90;}.cls-5{fill:#ffe0bc;}.cls-6{fill:#8dc49e;}.cls-7{fill:#5a903f;}.cls-8{fill:#f1eaeb;}</style></defs><g id="Layer_2" data-name="Layer 2"><g id="Layer_1-2" data-name="Layer 1"><path class="cls-1" d="M82.32,118H75.49V106.53h-4c.15-13.23.31-33.56-.1-36.31a2.07,2.07,0,0,0-.06-.26c-.71-2-13.56-25.85-17-26.51a39.2,39.2,0,0,0-4.61-.29L50,31.08l-9.47-2.4L6.39,91.5l39.7,1.12c1.84,2.61,3.11,4.45,3.11,4.45v9.46L46,114.44,40.57,118,39,126.8,25.63,146.26a74.88,74.88,0,0,0,12.52.89c16.24,0,34.47-11.21,44.28-24.47Z"/><path class="cls-2" d="M28.14,60.08c-1.63-.16-3.12,1.34-3.32,3.34h0c-.2,2,1,3.75,2.6,3.91l26,2.57c1.64.17,3.12-1.33,3.32-3.33h0c.2-2-1-3.75-2.6-3.91Z"/><path class="cls-3" d="M28.06,60.19H55.13c.88.08,1.91,3.22,2.38,4L27.64,61.75a14.11,14.11,0,0,0-2-.4A2.84,2.84,0,0,1,28.06,60.19Z"/><path class="cls-2" d="M24.05,53.23c-1.64-.1-3.07,1.45-3.19,3.46h0c-.11,2,1.12,3.72,2.76,3.81l26.44,1.68c1.64.09,2.68-1.61,2.8-3.61h0c.11-2-1.12-3.72-2.76-3.82Z"/><path class="cls-3" d="M24.16,53.24l26.7,1.46c.87.09.87,1.75,1.34,2.54L22.76,54.32a3.71,3.71,0,0,0-1.06.08A2.83,2.83,0,0,1,24.16,53.24Z"/><path class="cls-2" d="M23.44,45.9c-1.64-.1-3.07,1.45-3.18,3.46h0c-.12,2,1.12,3.72,2.75,3.81L49.06,54.7c1.65.09,3.07-1.46,3.19-3.47h0c.11-2-1.12-3.71-2.76-3.81Z"/><path class="cls-4" d="M64.9,70.45c-.72-2-13.56-25.85-17-26.51-2.92-.56-21.06-.35-26-.2h-.62a4.09,4.09,0,0,0,0,8.12H42.07a3.71,3.71,0,0,1,1.34.68c1.18,1.38,6.61,13,7,18.52l8,3.81L65,70.7A1,1,0,0,0,64.9,70.45Z"/><path class="cls-5" d="M20.81,46.5a3.28,3.28,0,0,1-.27-1.25h0A3.51,3.51,0,0,1,20.79,44c1.69-.07,4.22-.21,5.2.23a.79.79,0,0,1,.56.77h0a.88.88,0,0,1-.55.81C25,46.32,22.5,46.42,20.81,46.5Z"/><path class="cls-5" d="M48.69,44.64a.28.28,0,0,0-.38.09l-1,1.45a.26.26,0,0,0,.07.36h0a.29.29,0,0,0,.38-.08l1-1.45a.27.27,0,0,0-.07-.37Z"/><path class="cls-5" d="M47.76,44.06a.28.28,0,0,0-.38.09l-1,1.44a.27.27,0,0,0,.07.37h0a.29.29,0,0,0,.38-.09l1-1.44a.26.26,0,0,0-.07-.37Z"/><rect class="cls-6" x="-23.77" y="25.62" width="92.03" height="41.93" transform="translate(-24.94 67.51) rotate(-88.39)"/><path class="cls-7" d="M41.22,5,38.86,89.17l-35.59-1L5.63,4Zm-5.47,80.9L37.94,8.1,8.74,7.28,6.56,85.07Z"/><path class="cls-7" d="M21.66,67.71a5.38,5.38,0,1,1-5.53,5.22A5.38,5.38,0,0,1,21.66,67.71Z"/><path class="cls-7" d="M23.14,14.71a5.38,5.38,0,1,1-5.53,5.23A5.38,5.38,0,0,1,23.14,14.71Z"/><path class="cls-7" d="M22.6,34A12.55,12.55,0,1,1,9.69,46.23,12.55,12.55,0,0,1,22.6,34Z"/><path class="cls-4" d="M65,70.7l-14.56.36a3.54,3.54,0,0,1-.5,2.54c-3.36,3.71-6.12,3.31-10.43.63-2.51-1.56-5-3.68-9.72-6.21-10.45-5.59-10.85-1.79-12.09.16C15.42,71.69,28.41,77.52,32,82.35c4.82,6.54,10.82,15.21,10.82,15.21v20.92H64.9S65.58,74.83,65,70.7Z"/><path class="cls-5" d="M19.67,70.7A12,12,0,0,1,21,68.55h0a0,0,0,0,1,0,0h0a12.26,12.26,0,0,1,1.74-1.84c1.34,1,3.37,2.54,3.56,3.91a2.12,2.12,0,0,1-.52,1.59h0v0h0a2.1,2.1,0,0,1-1.4.92C23,73.3,21,71.73,19.67,70.7Z"/><path class="cls-5" d="M34.05,74.67c-.13-.08-.36.06-.53.32l-1.91,3c-.16.25-.19.53-.07.61h0c.12.08.35-.07.52-.33L34,75.28c.16-.25.2-.53.08-.61Z"/><path class="cls-5" d="M33.12,74.08c-.12-.08-.35.06-.52.31l-1.91,3c-.16.26-.2.53-.08.61h0c.13.08.36-.06.53-.32l1.91-2.95c.16-.25.2-.53.07-.6Z"/><rect class="cls-8" x="34.18" y="107.02" width="34.92" height="11.46"/><path class="cls-7" d="M23,118.48l.43,27.72A59.08,59.08,0,0,0,76.2,130.1l-.27-11.62Z"/></g></g></svg>